<?xml version="1.0" encoding="utf-8"?>
<!-- Generator: Adobe Illustrator 19.0.1, SVG Export Plug-In . SVG Version: 6.00 Build 0)  -->
<svg version="1.1" id="ice_x5F_cream_15_" xmlns="http://www.w3.org/2000/svg" xmlns:xlink="http://www.w3.org/1999/xlink" x="0px"
	 y="0px" viewBox="0 0 128 128" style="enable-background:new 0 0 128 128;" xml:space="preserve">
<style type="text/css">
	.st0{display:none;fill:#0F0F0F;}
	.st1{display:none;}
	.st2{display:inline;fill-rule:evenodd;clip-rule:evenodd;fill:#0F0F0F;}
	.st3{display:inline;fill:#0F0F0F;}
	.st4{display:inline;}
	.st5{fill:#0F0F0F;}
	.st6{fill:#FFFFFF;}
</style>
<g id="row3">
	<path id="ice_x5F_cream_14_" class="st0" d="M110,63.6l-0.2-1.9h-8c1.2-2.8,1.8-5.9,1.8-9c0-2.9-0.5-5.7-1.5-8.3l-0.1-0.4
		c-3.3-8.5-11-14.2-19.9-15c0.8-2.3,1.2-4.7,1.2-7.2C83.1,9.8,73.3,0,61.2,0C49.2,0,39.3,9.8,39.3,21.9c0,4.6,1.4,9,4.1,12.7
		c-7.4,1.8-13.6,7.1-16.5,14.2c-1.1,2.8-1.7,5.8-1.7,8.9c0,1.4,0.1,2.7,0.3,4h-7.2L18,63.6c0,0.4-1,9.2,6.6,15.9
		c3,2.6,9.2,5.3,14.2,7.5c1.9,0.8,3.7,1.6,4.9,2.2c12,6,13.1,9.4,14.1,14.9c1.2,7.1,1.3,10.7-3.5,12.9c-2,0.9-4.2,1.6-6.3,2.3
		c-4.5,1.4-8,2.6-7.8,5.6c0,0.4,0,0.9,0,1l-0.1,2.2h47.7l-0.1-2.2c0,0,0-0.6,0-1c0.2-3-3.3-4.2-7.8-5.6c-2-0.6-4.3-1.4-6.3-2.3
		c-4.8-2.2-4.7-5.8-3.5-12.9c1-5.5,2.1-8.9,14-14.9c1.2-0.6,3-1.4,4.9-2.2c5-2.2,11.2-4.8,14.2-7.5C111,72.8,110,64,110,63.6z
		 M99.3,52.8c0,3.1-0.8,6.2-2.2,9H72.3c0,0,0-0.1,0-0.1c0.1-0.3,0.1-0.6,0.1-0.9c0.1-0.4,0.1-0.7,0.1-1.1c0-0.3,0.1-0.6,0.1-0.9
		c0-0.3,0-0.6,0-0.9c2.4,1.6,5.5,2.4,8.1,2.4c3.4,0,6.6-1.4,8.8-4c0.5,0.1,1.1,0.1,1.6,0.1c3.5,0,6.4-1.5,8.1-4.1
		C99.3,52.4,99.3,52.6,99.3,52.8z M79.8,33.3c7.9,0,14.9,4.7,18,12l0.2,0.4c0.1,0.4,0.3,0.7,0.4,1.1c-0.5,3.4-2.6,6.7-7.2,6.7
		c-0.7,0-1.3-0.1-1.9-0.2L88.3,53l-0.6,0.8c-1.7,2.3-4.2,3.6-7.1,3.6c-3.3,0-7-1.6-8.4-3.7v0c-0.2-1.4-0.6-2.9-1.1-4.2L71,49
		c-0.2-0.4-0.4-0.9-0.6-1.3c-0.2-0.4-0.4-0.8-0.6-1.2c-1.3-2.4-2.9-4.5-4.9-6.3l0,0c0.1-0.1,0.2-0.2,0.3-0.3c0.5-0.6,1-1.1,1.6-1.6
		c0.3-0.3,0.6-0.5,0.9-0.7c0.3-0.3,0.6-0.5,0.9-0.7c0.3-0.2,0.6-0.4,0.9-0.6c0.3-0.2,0.5-0.3,0.8-0.5c0.2-0.1,0.5-0.3,0.7-0.4
		c0,0,0.1,0,0.1,0c0.3-0.1,0.5-0.3,0.8-0.4c0.3-0.1,0.5-0.2,0.8-0.4c0.2-0.1,0.5-0.2,0.7-0.3c0.4-0.1,0.8-0.3,1.2-0.4
		c0.4-0.1,0.7-0.2,1.1-0.3c0.4-0.1,0.7-0.2,1.1-0.2c0.3-0.1,0.7-0.1,1-0.1c0.4,0,0.9-0.1,1.3-0.1c0.1,0,0.3,0,0.4,0
		C79.4,33.3,79.6,33.3,79.8,33.3z M68.4,57.7c0,0.4,0,0.9-0.1,1.3c0,0.3,0,0.6-0.1,0.9c0,0.3-0.1,0.5-0.1,0.8c0,0.3-0.1,0.7-0.2,1
		H58c0.2-0.2,0.4-0.4,0.6-0.6c0.5,0.1,1,0.1,1.6,0.1c3.5,0,6.3-1.5,8.1-4.1C68.4,57.3,68.4,57.5,68.4,57.7z M44.5,16.3
		c2.4-7,9-12.1,16.8-12.1c7.9,0,14.5,5.2,16.8,12.3c0,0,0,0,0,0c-0.5,3-2.4,5.8-6.4,5.8c-0.6,0-1.1-0.1-1.7-0.2L69,22l-0.6,0.8
		c-1.5,2-3.8,3.2-6.4,3.2c-2.6,0-5-1.3-6.5-3.4L55,21.6L54,22c-0.8,0.3-1.7,0.4-2.5,0.4C47.9,22.4,45.2,19.9,44.5,16.3L44.5,16.3z
		 M43.6,21.3c1.8,2.4,4.6,4,7.8,4c0.8,0,1.7-0.1,2.5-0.3c2,2.4,5,3.9,8.2,3.9c3.1,0,6-1.3,8.1-3.7c0.5,0.1,0.9,0.1,1.4,0.1
		c3.1,0,5.6-1.3,7.3-3.5v0.1c0,2.5-0.5,5-1.5,7.2c0,0-0.1,0-0.1,0c-0.5,0.1-0.9,0.1-1.4,0.2c-0.9,0.2-1.8,0.4-2.7,0.6
		c-0.4,0.1-0.7,0.2-1.1,0.3c-2.5,0.9-4.9,2.2-7,3.8c-0.4,0.3-0.7,0.6-1.1,0.9C64,35,63.9,35,63.9,35.1c-0.4,0.3-0.7,0.7-1,1
		c-0.4,0.4-0.8,0.8-1.1,1.2c0,0-0.1,0.1-0.1,0.1c0,0-0.1,0.1-0.1,0.1h0c-0.5-0.3-0.9-0.6-1.4-0.8c-0.4-0.2-0.9-0.4-1.3-0.6
		c-0.2-0.1-0.4-0.2-0.6-0.2c-0.3-0.1-0.6-0.3-0.9-0.4c-0.2-0.1-0.4-0.2-0.6-0.2c-0.4-0.2-0.9-0.3-1.3-0.4c-0.4-0.1-0.8-0.2-1.2-0.3
		c-0.1,0-0.3-0.1-0.4-0.1c-0.4-0.1-0.8-0.2-1.2-0.2c-0.2,0-0.4-0.1-0.7-0.1c-0.4-0.1-0.8-0.1-1.1-0.1c-0.2,0-0.4,0-0.7,0
		c-0.4,0-0.9,0-1.3,0c-0.2,0-0.4,0-0.6,0c-3.1-3.3-4.8-7.5-4.8-12C43.6,21.7,43.6,21.5,43.6,21.3z M30.4,51.5
		c0.1-0.4,0.2-0.7,0.4-1.1c2.8-6.9,9.4-11.7,16.8-12.2c0.4,0,0.8,0,1.2,0c4.3,0,8.4,1.4,11.8,4c0.2,0.2,0.5,0.4,0.8,0.6
		c0.1,0.1,0.3,0.2,0.4,0.4c2.2,1.9,3.9,4.4,5,7l0.1,0.4c0.1,0.4,0.3,0.8,0.4,1.1v0c-0.6,3.4-2.6,6.6-7.2,6.6c-0.7,0-1.3-0.1-1.9-0.2
		L57.5,58l-0.6,0.8c-1,1.4-2.4,2.5-4,3h-6c-1.7-0.6-3.2-1.8-4.2-3.3L42,57.5l-1,0.4c-0.9,0.3-1.9,0.5-2.8,0.5
		C34.2,58.4,31.1,55.6,30.4,51.5L30.4,51.5z M29.4,56.6c1.9,2.8,5,4.6,8.7,4.6c0.9,0,1.8-0.1,2.7-0.3c0.2,0.3,0.5,0.6,0.8,0.9H29.8
		c-0.3-1.3-0.4-2.7-0.4-4C29.4,57.3,29.4,57,29.4,56.6z"/>
	<g id="ice_x5F_cream_13_" class="st1">
		<path id="Path_20_" class="st2" d="M88.9,65.2H39.1l-1.6,19.6h17.4v34.8c0,4.6,3.7,8.3,8.3,8.3c4.6,0,8.3-3.7,8.3-8.3V84.8h18.9
			L88.9,65.2z M67,119.7c0,2.1-1.7,3.8-3.8,3.8c-2.1,0-3.8-1.7-3.8-3.8V87.1H67V119.7z"/>
		<path id="Path_28_" class="st2" d="M84.4,9.1c0-5-4.1-9.1-9.1-9.1H52.6c-5,0-9.1,4.1-9.1,9.1l-0.9,11.8h42.8L84.4,9.1z M85.8,25.8
			H42.2L41,40.6h46L85.8,25.8z M87.4,45.5H40.6l-1.2,14.8h49.1L87.4,45.5z"/>
	</g>
	<g id="ice_x5F_cream_12_" class="st1">
		<path id="Path_19_" class="st3" d="M81.4,0H46.6C41,0,36.3,4.6,36.3,10.3v78.2c0,5.7,4.6,10.3,10.3,10.3H59V128h9.9V98.7h12.5
			c5.7,0,10.3-4.6,10.3-10.3V10.3C91.7,4.6,87,0,81.4,0z M41.2,10.3c0-3,2.4-5.4,5.4-5.4h34.8c1.9,0,3.5,0.9,4.5,2.3L41.2,19.3V10.3
			z M86.8,88.4c0,3-2.4,5.4-5.4,5.4H46.6c-1.5,0-2.8-0.6-3.8-1.5l44-11.9V88.4z M86.8,71.3L41.2,83.7v-7l45.7-12.4V71.3z M86.8,55.2
			L41.2,67.6v-7l45.7-12.4V55.2z M86.8,39.1L41.2,51.5v-7l45.7-12.4V39.1z M86.8,23L41.2,35.4v-7L86.8,16V23z"/>
	</g>
	<g id="ice_x5F_cream_11_" class="st1">
		<path id="Path_16_" class="st3" d="M45.2,69.8c-4.6-0.9-7.3-3.1-9-5.2c-1.7-2.1-2.2-4.1-2.3-4.3c-0.3-1.4-1.7-2.3-3.1-1.9
			c-1.1,0.2-1.9,1.1-2,2.2c-0.1,0.3-0.1,0.6,0,0.9c0.1,0.4,2.6,10.8,15.4,13.4c0.2,0,0.3,0.1,0.5,0.1c1.2,0,2.3-0.9,2.6-2.1
			C47.6,71.4,46.7,70.1,45.2,69.8z M91.5,25c-1.1-0.5-2.3-0.9-3.5-1.2c-1.8-0.5-3.8-0.8-5.8-0.8c-2.7,0-5.3,0.5-7.8,1.4l0,0
			c-0.3,0.1-0.6,0.3-0.9,0.4c-0.3,0.1-0.6,0.3-1,0.4c-0.4,0.2-0.8,0.4-1.2,0.6c-0.2,0.1-0.4,0.2-0.7,0.4c-1,0.5-1.9,1.1-2.7,1.8
			c-2.7-9.8-11.6-17-22.3-17c-0.2,0-0.3,0-0.5,0c-1.5,0-2.9,0.2-4.3,0.5c-10.5,2.2-18.3,11.5-18.3,22.6c0,1.6,0.2,3.1,0.5,4.6
			c1.2-1,2.7-1.5,4.3-1.5c1.9,0,3.6,0.7,5,2.1l7.3,7.3l7.3-7.3c0.2-0.2,0.5-0.4,0.8-0.6c1.2-0.9,2.7-1.4,4.2-1.4
			c1.9,0,3.7,0.7,5,2.1l6.9,6.9l0.4,0.4l0.3-0.3l7-7c1.3-1.3,3.1-2,5-2c1.9,0,3.6,0.7,5,2c0,0,0,0,0,0l2.5,2.4l4.8,4.8l7.3-7.3
			c1.3-1.3,3.1-2,5-2c0.9,0,1.8,0.2,2.6,0.5C101.5,32,97.1,27.5,91.5,25z M65,0c-6.8,0-12.8,2.9-17,7.5c9.5,0.8,17.9,6.6,21.9,15.1
			c3.8-2,8-3.1,12.4-3.1c1.9,0,3.8,0.2,5.6,0.6C86.4,8.8,76.7,0,65,0z"/>
		<g id="Path_13_" class="st4">
			<path class="st5" d="M66.1,128c-14.6,0-39.2-1.2-39.2-9.5c0-6.4,11-11.4,22.6-12.9c-4.5-14.2-11.9-19.8-17.9-24.5
				c-2.3-1.8-4.5-3.5-6.3-5.4c-10-10.9-10.4-22-7.7-28.2c1.9-4.3,5.5-6.9,9.5-6.9c1.6,0,3.2,0.6,4.3,1.8l7.3,7.3
				c0.5,0.5,1,0.3,1.2,0l7.3-7.3c0.4-0.4,1-0.8,1.7-1.2c2.2-1.1,5.3-0.6,7.1,1.2l7.3,7.3c0,0,0.1,0.1,0.2,0.1c0.3,0.2,0.5,0.2,0.8,0
				c0.1-0.1,0.2-0.1,0.2-0.2l7.3-7.3c2.2-2.2,6-2.3,8.4-0.3l0.3,0.2c0.1,0,0.1,0.1,0.2,0.2l7.2,7.2c0.3,0.3,0.7,0.5,1.2,0l0.1-0.1
				l7.4-6.3c1.1-1.1,2.6-1.7,4.2-1.7c4,0,7.5,2.5,9.4,6.8c2.7,6.2,2.4,17.3-7.5,28.3c-1.8,2-4,3.7-6.3,5.4
				c-6,4.6-13.3,10.3-17.8,24.5c11.5,1.6,22.4,6.5,22.4,12.9C101.2,125.1,89.4,128,66.1,128z M32.3,118.3c2.1,1.9,14.5,4.5,33.9,4.5
				c17.4,0,27.7-2.1,29.7-3.7c-0.8-2.1-8.7-6.7-20.7-7.7l-3.1-0.3l0.8-3C77.6,90,86.7,82.9,93.3,77.8c2.2-1.7,4.1-3.2,5.6-4.8
				c7.7-8.5,8.9-17.5,6.6-22.6c-1-2.3-2.7-3.7-4.6-3.7c-0.2,0-0.4,0-0.6,0.2l-0.2,0.1l-7.4,6.3c-2.3,2.2-6.4,2.2-8.6-0.1l-7.2-7.2
				c0,0-0.1-0.1-0.2-0.1c-0.2-0.1-0.4-0.2-0.5-0.2c-0.1,0-0.4,0-0.6,0.2l-7.3,7.3c-0.5,0.5-1.1,0.9-1.7,1.2
				c-1.8,0.8-3.7,0.8-5.4-0.1c-0.5-0.3-1.1-0.6-1.5-1.1l-7.3-7.3c-0.2-0.2-0.5-0.2-0.6-0.2c-0.1,0-0.2,0-0.4,0.1l-0.2,0.1l-7.3,7.3
				c-2.3,2.3-6.4,2.3-8.7,0l-7.3-7.3c-0.2-0.2-0.4-0.2-0.6-0.2c-1.9,0-3.7,1.4-4.7,3.7c-2.2,5.1-1,14.1,6.7,22.5
				c1.5,1.6,3.4,3.1,5.7,4.8c6.7,5.1,15.9,12.1,20.7,30.3l0.8,3.1l-3.2,0.3C40.3,111.5,33,116.4,32.3,118.3z"/>
		</g>
	</g>
	<g id="ice_x5F_cream_10_">
		<path id="Path_14_" class="st5" d="M47.5,78.4l2.5,7.3l10.9-7.3L47.5,78.4z M82.8,76.2l4.6-13.3H42.1l4.7,13.4
			C46.8,76.3,82.6,76.2,82.8,76.2z M79.9,84.5l2.1-6.2h-2.9L53.5,95.5l1.9,5.3L79.9,84.5z M56.1,103.2l1.9,5.4c0,0,0.1-0.1,0.1-0.1
			l17.5-11.7l3-8.7L56.1,103.2z M65.1,78.3l-14.3,9.5l1.9,5.4l22.2-15H65.1z M58.8,110.8l6,17.2l9.6-27.6L58.8,110.8z"/>
		<path class="st5" d="M92,49.8c-0.8-2.8-2.8-5-5.4-6c0.3-0.4,0.7-0.8,0.9-1.3c1.2-2.1,1.5-4.5,0.9-6.8c-1.1-3.9-4.6-6.6-8.6-6.6
			c-0.1,0-0.3,0-0.4,0c0.7-1.5,0.9-3.3,0.5-4.9c-0.9-3.3-4.1-5.6-7.5-5.3L57.2,0L57,4.9c-0.2,4.4-1,12.4-2.5,14.9
			c-2.6,4.3-9.5,6.3-9.6,6.3c-1.9,0.5-3.4,1.7-4.3,3.3c-1,1.6-1.2,3.6-0.7,5.4c0.4,1.6,1.4,2.9,2.6,3.9l-0.1,0
			c-4.8,1.3-7.6,6.2-6.3,11c0.7,2.5,2.4,4.5,4.6,5.7c-0.2,0.3-0.3,0.6-0.4,0.8c-0.6,2,0.9,3.8,1.1,3.9l0.6,0.6h43.6l0.2-0.1
			C90.4,59.5,93.3,54.5,92,49.8z M43.7,31.3c0.5-0.8,1.2-1.4,2.1-1.6c0.3-0.1,8.5-2.4,11.8-8c1.5-2.6,2.3-7.9,2.7-11.9L70.9,23
			l1.2-0.3c1.8-0.5,3.7,0.6,4.2,2.4c0.2,0.9,0.1,1.8-0.3,2.6c-0.5,0.8-1.2,1.4-2.1,1.6l-26.2,7c-1.8,0.5-3.7-0.6-4.2-2.4
			C43.1,33,43.3,32.1,43.7,31.3z M39.6,48.8c-0.8-2.8,0.9-5.7,3.7-6.4l35.2-9.4c0.4-0.1,0.9-0.2,1.4-0.2c2.4,0,4.4,1.6,5.1,3.9
			c0.4,1.4,0.2,2.8-0.5,4c-0.7,1.2-1.8,2.1-3.2,2.4L46,52.5c-0.4,0.1-0.9,0.2-1.4,0.2C42.3,52.7,40.2,51.1,39.6,48.8z M84.9,57.1
			H44.4c0,0,0.1,0,0.1,0L82,47c0.4-0.1,0.9-0.2,1.4-0.2c2.4,0,4.4,1.6,5.1,3.9C89.2,53.4,87.6,56.3,84.9,57.1z"/>
	</g>
</g>
<g id="row2_1_" class="st1">
	<g id="ice_x5F_cream_9_" class="st4">
		<g>
			<path class="st5" d="M97.5,128H30.5l1.8-3.7c0.1-0.2,0.1-0.3,0.1-0.5c0.4-3.2,2.1-3.8,13.6-7.8c5.5-1.9,9.3-5.2,11-9.5
				c2-4.9,1.2-11.1-2-17.4C49.7,79,23.7,53,23.4,52.7L19,48.4H109l-4.4,4.4C104.3,53,78.3,79,73,89.1c-3.3,6.3-4,12.4-2,17.4
				c1.7,4.3,5.5,7.6,11,9.5c11.4,4,13.2,4.6,13.6,7.8c0,0.3,0,0.3,0.1,0.5L97.5,128z M42,122.9h44c-2-0.7-4.2-1.5-5.7-2
				c-6.9-2.4-11.8-6.7-14.1-12.5c-2.5-6.3-1.7-14,2.3-21.6c4.3-8.3,20.3-25.2,28.1-33.2H31.4c7.8,8,23.8,25,28.1,33.2
				c4,7.6,4.8,15.3,2.3,21.6c-2.3,5.8-7.2,10.1-14.1,12.5C46.1,121.4,44,122.1,42,122.9z"/>
		</g>
		<path class="st5" d="M70.1,22.7c3.8-2,8.1-3,12.5-3c1.9,0,3.8,0.2,5.7,0.6C86.7,8.8,76.9,0,65,0c-6.8,0-12.8,2.9-17.1,7.5
			C57.5,8.3,65.9,14.1,70.1,22.7z"/>
		<path class="st5" d="M105.9,44.8c-0.8-8.6-6.2-15.9-13.8-19.3c-1.2-0.5-2.4-1-3.7-1.3c-1.9-0.5-3.8-0.8-5.9-0.8
			c-4.3,0.1-11.3,2.7-17.2,10.5c-1.2,1.6-2.2,3.4-3,5.3c-0.3,0.8-1,1.2-1.8,1.2c-0.2,0-0.5,0-0.7-0.1c-1-0.4-1.5-1.5-1.1-2.4
			c1.8-4.6,4.8-8.5,8.7-11.4c-3.3-9-11.9-15.4-22-15.4c-0.2,0-0.3,0-0.5,0c-1.6,0-3.1,0.2-4.6,0.6c-10.5,2.3-18.3,11.7-18.3,22.9
			c0,3.7,0.9,7.1,2.4,10.2H105.9z"/>
	</g>
	<g id="ice_x5F_cream_8_" class="st4">
		<path class="st5" d="M71.5,86.6h22.1l0-86.6H34.4v86.6h22.6c0.7,2.8,1.6,8.9-0.7,18c-2.2,8.8-1.6,15.9,1.6,20
			c1.7,2.1,3.9,3.3,6.4,3.3c2.5,0,4.7-1.2,6.4-3.3c3.2-4.1,3.8-11.2,1.6-20C69.9,95.5,70.8,89.4,71.5,86.6z M39.6,5.1h48.9l0.1,19.5
			c-0.5-0.1-1.2-0.2-2-0.4c-1.7-0.4-1.8-9.1-5.3-8.6c-3.8,0.5-2.2,11.6-7.4,11.6c-3.3,0-7.1-9.1-8.3-9.1c-6.9,0,3.4,19.9-8.4,20
			c-10.6,0.2-3-18.9-5.1-20.5c-2.1-1.5-4.3,6.4-8.5,6.5c-1.7,0.1-3-1.5-3.9-3V5.1z M66.6,121.5c-1.3,1.7-3.3,1.7-4.7,0
			c-1-1.3-3.1-5.5-0.6-15.6c2.2-9,1.8-15.5,1-19.3h3.9c-0.8,3.8-1.2,10.3,1,19.3C69.7,116.1,67.6,120.2,66.6,121.5z"/>
	</g>
	<g id="ice_x5F_cream_7_" class="st4">
		<path id="Path_7_" class="st5" d="M101.1,41.6C100.1,33,94.4,0,64.5,0C36.7,0,28.7,32.8,27.1,41.3c-6,1-10.6,6.3-10.6,12.6
			c0,6.9,5.4,12.9,12.2,13.1v5.3h10.5L64.8,128l23.6-55.8h10.3V67h0.1c7,0,12.7-5.7,12.7-12.8C111.5,47.9,107,42.7,101.1,41.6z
			 M39.5,60.7C39.6,60.6,39.6,60.6,39.5,60.7c0.1-0.1,0.1,0,0.1,0H39.5z M98.8,62c0,0-0.1,0-0.1,0c-1.2,0-2.5-0.6-3.6-1.3
			c-2.1-1.4-3.8-3.5-4.5-4.5l-2.2-3.4l-2,3.5c-0.5,1-2.1,3.2-3.9,4.3c-0.7,0.4-1.3,0.7-2,0.7c-0.7,0-1.5-0.3-2.3-0.7
			c-2-1.1-3.8-3.1-4.5-4l-2.1-2.9l-2,3c-0.5,0.8-2.1,2.8-4,3.9c-0.7,0.4-1.5,0.7-2.2,0.7c-0.7,0-1.4-0.3-2-0.7
			c-1.9-1.2-3.1-3.6-3.2-3.6l-1.9-3.9l-2.4,3.6c-0.6,0.8-2.2,2.8-4,3.9c-0.7,0.4-1.5,0.7-2.2,0.7c-0.6,0-1.2-0.3-1.8-0.7
			c-1.9-1.4-3.7-4.6-4.2-5.5l-2.1-3.5l-2.1,3.5c-0.7,1.1-2.6,3.8-4.9,5.5c-1.1,0.8-2.3,1.3-3.4,1.3c-0.1,0-0.3,0-0.4,0
			c-4.1-0.2-7.3-4-7.3-8.1c0-4.3,3.5-7.8,7.8-7.8h2.2l0.3-2.2C31.7,43.5,37,5,64.5,5c12.4,0,21.5,6.2,27,18.3
			c4.3,9.4,4.8,20.7,4.8,20.8l0.1,2.4h2.4c4.3,0,7.8,3.5,7.8,7.8S103.1,62,98.8,62z"/>
		<g id="Path_18_">
			<path class="st6" d="M63.7,119.9l-20.9-47l1.5-0.7l4.3,9.7l3-4.7l-2.1-4.2l1.5-0.7l1.7,3.3l2.2-3.4l1.4,0.9l-2.7,4.3l4.2,8.4
				l4.4-7.7l-2.5-5.1l1.5-0.7l2,4.1l2.4-4.2l1.4,0.8l-3,5.1l4.5,9l4.6-8.7l-2.8-5.5l1.5-0.8l2.3,4.5l2.4-4.5l1.5,0.8L75,78.4
				l3.2,6.2l5.4-12.9l1.5,0.6l-19.8,47.5l-0.8-0.3L63.7,119.9z M59.8,106.9l4.7,10.6l3.3-8l-4.5-9.1L59.8,106.9z M64.2,98.6l4.4,8.9
				l3.7-8.9l-3.9-7.9L64.2,98.6z M54.4,94.7l4.6,10.3l3.4-6.4l-4.7-9.5L54.4,94.7z M58.6,87.4l4.7,9.4l4.2-7.9l-4.5-9.1L58.6,87.4z
				 M69.4,88.9l3.8,7.7l4.2-10l-3.3-6.4L69.4,88.9z M49.5,83.7l4.1,9.1l3.2-5.5l-4.2-8.5L49.5,83.7z"/>
		</g>
		<g id="Path_12_">
			<path class="st5" d="M89.3,32.6h-6c0-9.5-5.9-17.1-13.1-17.1v-6C80.7,9.4,89.3,19.8,89.3,32.6z"/>
		</g>
	</g>
	<g id="ice_x5F_cream_6_" class="st4">
		<path id="Path_17_" class="st5" d="M124.9,55.2l-2-9c2.1-1.8,2.4-4.8-0.3-6.7c-5.8-4.1-15.3-10.4-23.1-14.2c-4.2-2.1-9.2-1-13,0.6
			c-13.9,6-60.2,25.9-76.7,32.4c-12.4,4.9-9,9.9-6.9,11.8l-0.8,8.1L0,78.4l0.2,2c0.3,3.3,3.2,5.5,3.8,5.9c1,0.7,13.9,10.8,18.1,14.4
			c2.6,2.2,5.3,3.1,8.2,3.1c3.2,0,6.7-1.1,10.8-2.8c8-3.4,72.8-33.8,82.6-38.5c2.3-1.1,3.7-3.2,4.1-5.5
			C128.6,52.9,125.7,52,124.9,55.2z M6.1,72.6c4.1,3.3,12.7,10,16,12.8c4.5,3.8,9,3.3,16.9,0c7.4-3.1,65.1-30.2,80.4-37.4l2.4,11
			C109,65.1,47.2,94.1,39.6,97.3c-7.7,3.3-11.2,3.3-14.8,0.3C20.4,93.8,7.1,83.5,6.5,83l-0.1-0.1c-0.2-0.2-0.7-0.5-1.1,0.4L6.1,72.6
			z"/>
		<path id="Path_9_" class="st6" d="M52.7,55.3c-1.3-1.3-0.2-3.2,1.9-3.1c1.5,0.1,4,1.1,3.1,2.5C56.3,57,52.7,55.3,52.7,55.3z
			 M71.5,56.1c0.9-1.4-1.6-2.4-3.1-2.5c-2.1-0.1-3.2,1.8-1.9,3.1C66.5,56.7,70,58.3,71.5,56.1z M86.7,57.5c0.9-1.4-1.6-2.4-3.1-2.5
			c-2.1-0.1-3.2,1.8-1.9,3.1C81.7,58.1,85.2,59.7,86.7,57.5z M96.3,46.4c0.9-1.4-1.6-2.4-3.1-2.5c-2.1-0.1-3.2,1.8-1.9,3.1
			C91.3,47,94.9,48.7,96.3,46.4z M81.2,45.1c0.9-1.4-1.6-2.4-3.1-2.5c-2.1-0.1-3.2,1.8-1.9,3.1C76.2,45.7,79.7,47.3,81.2,45.1z
			 M67.4,43.7c0.9-1.4-1.6-2.4-3.1-2.5c-2.1-0.1-3.2,1.8-1.9,3.1C62.4,44.3,65.9,45.9,67.4,43.7z M90.8,34c0.9-1.4-1.6-2.4-3.1-2.5
			c-2.1-0.1-3.2,1.8-1.9,3.1C85.8,34.6,89.3,36.3,90.8,34z M106,35.4c0.9-1.4-1.6-2.4-3.1-2.5c-2.1-0.1-3.2,1.8-1.9,3.1
			C101,36,104.5,37.6,106,35.4z M61.9,67.1c0.9-1.4-1.6-2.4-3.1-2.5c-2.1-0.1-3.2,1.8-1.9,3.1C56.9,67.7,60.4,69.4,61.9,67.1z
			 M46.7,65.7c0.9-1.4-1.6-2.4-3.1-2.5c-2.1-0.1-3.2,1.8-1.9,3.1C41.7,66.3,45.2,68,46.7,65.7z M32.9,64.4c0.9-1.4-1.6-2.4-3.1-2.5
			c-2.1-0.1-3.2,1.8-1.9,3.1C27.9,65,31.4,66.6,32.9,64.4z M42.6,54.7c0.9-1.4-1.6-2.4-3.1-2.5c-2.1-0.1-3.2,1.8-1.9,3.1
			C37.6,55.3,41.1,57,42.6,54.7z M42.6,75.4c0.9-1.4-1.6-2.4-3.1-2.5c-2.1-0.1-3.2,1.8-1.9,3.1C37.6,76,41.1,77.6,42.6,75.4z
			 M28.8,74c0.9-1.4-1.6-2.4-3.1-2.5c-2.1-0.1-3.2,1.8-1.9,3.1C23.8,74.6,27.3,76.3,28.8,74z M19.1,63c0.9-1.4-1.6-2.4-3.1-2.5
			c-2.1-0.1-3.2,1.8-1.9,3.1C14.1,63.6,17.7,65.2,19.1,63z"/>
	</g>
	<g id="ice_x5F_cream_5_" class="st4">
		<path id="Path_3_" class="st5" d="M82.7,0H45.3c-5.5,0-10,4.5-10,10v77c0,5.5,4.5,10,10,10h11.9c-0.5,1.7-4.4,16-4.4,19.5
			c0,7.4,4.1,11.5,11.5,11.5c7.3,0,11.5-4.2,11.5-11.5c0-2.2-4.2-17.6-4.7-19.5h11.5c5.5,0,10-4.5,10-10V10C92.7,4.5,88.2,0,82.7,0z
			 M71.4,116.5c0,4.8-2.2,7-7,7c-5,0-7-2-7-7c0-2.5,4.1-17.6,4.7-19.5h4.4C67,98.9,71.4,115.2,71.4,116.5z"/>
		<path id="Path_6_" class="st6" d="M51.8,16.9c0,2.8-2.2,5-5,5c-2.8,0-5-2.2-5-5c0-2.8,2.2-5,5-5C49.5,11.9,51.8,14.1,51.8,16.9z
			 M63.9,27.6c-2.8,0-5,2.2-5,5s2.2,5,5,5c2.8,0,5-2.2,5-5S66.6,27.6,63.9,27.6z M81,11.9c-2.8,0-5,2.2-5,5c0,2.8,2.2,5,5,5
			c2.8,0,5-2.2,5-5C86,14.1,83.8,11.9,81,11.9z M49.6,44.7c-2.8,0-5,2.2-5,5c0,2.8,2.2,5,5,5c2.8,0,5-2.2,5-5
			C54.6,46.9,52.4,44.7,49.6,44.7z M82.4,37.6c-2.8,0-5,2.2-5,5s2.2,5,5,5c2.8,0,5-2.2,5-5S85.2,37.6,82.4,37.6z M66.7,60.4
			c-2.8,0-5,2.2-5,5c0,2.8,2.2,5,5,5c2.8,0,5-2.2,5-5C71.7,62.6,69.5,60.4,66.7,60.4z M49.6,74.7c-2.8,0-5,2.2-5,5c0,2.8,2.2,5,5,5
			c2.8,0,5-2.2,5-5C54.6,76.9,52.4,74.7,49.6,74.7z M82.4,73.2c-2.8,0-5,2.2-5,5c0,2.8,2.2,5,5,5c2.8,0,5-2.2,5-5
			C87.4,75.5,85.2,73.2,82.4,73.2z"/>
	</g>
</g>
<g id="row1" class="st1">
	<g id="ice_x5F_cream_4_" class="st4">
		<g id="Path_4_">
			<g>
				<path class="st5" d="M93.2,69.1H33.9l-1-2.6c-0.4-0.9-3.5-9.2,0.5-15.3c1.4-2.1,3.4-3.6,6-4.5c-0.5-2.5-0.3-4.8,0.8-6.7
					c1.5-2.6,4.3-4.4,8.3-5.1c-1.1-7.5,4.6-10.6,7.4-12.3c0.6-0.3,1.5-0.9,1.8-1.1C61,17,60.2,10,60.1,9.9L58.8,0l7.9,6.1
					c1.1,0.9,10.2,8.2,10.2,18c4,0.7,6.9,2.9,8.3,6.3c0.7,1.9,0.9,3.9,0.5,5.9c4.5,1.7,5.7,4.9,6.1,6.8c0.4,2.1-0.1,4.4-1.2,6.5
					c2.2,1.1,3.9,2.6,5,4.6c3,5.7-0.7,12.2-1.1,12.9L93.2,69.1z M36.9,64.6h53.7c0.5-1,2.5-5.1,0.9-8.3c-0.9-1.6-2.5-2.7-5-3.4
					l-3.4-0.9l2.3-2.7c1.4-1.7,2.2-3.8,1.9-5.5c-0.4-2.4-2.9-3.4-4.9-3.8l-2.8-0.6l1.2-2.6c0.7-1.6,0.8-3.4,0.2-4.8
					c-1.2-3.1-4.6-3.6-6.6-3.6l-2.6-0.1l0.4-2.6c1.2-7.2-5.2-13.5-7.5-15.5c0.2,2.5,0.2,9.1-3.5,14c-0.7,0.9-1.8,1.5-3.1,2.3
					c-3.8,2.1-6.5,4.1-4.7,9.5l0.9,2.7l-2.8,0.2c-2.7,0.2-6.1,1-7.4,3.2c-0.7,1.3-0.7,3.1,0.2,5.3l1,2.6l-2.8,0.5
					c-2.5,0.4-4.3,1.5-5.4,3.2C34.6,57.6,36.5,63.3,36.9,64.6z"/>
			</g>
		</g>
		<path id="Path_2_" class="st5" d="M48.7,128h30.5l6.2-30.3h-43L48.7,128z M64.9,71.5h-4H38.6h-2.8h-0.2l0.6,3.8L37.9,87l1,6.3h3
			H86h3l1-6.3l1.4-8.7l1-6.1l0.1-0.7H66.5H64.9z"/>
	</g>
	<path id="ice_x5F_cream_3_" class="st3" d="M85.2,12.5C74.5,18.6,66.9,7.9,69.7,0.7C67.8,0.2,65.9,0,64,0C51.3,0,37.6,6,37.6,29.1
		v53.5c0,6.8,5.2,7.7,11.5,7.7h6.2V128h17.4V90.3h6.2c6.4,0,11.5-0.9,11.5-7.7V29.1C90.4,21.7,87.5,14.9,85.2,12.5z M56.2,79.4h-3.1
		V25.8h3.1V79.4z M68.1,123.4h-8.2V90.3h8.2V123.4z M74.5,79.4h-3.1V25.8h3.1V79.4z"/>
	<g id="ice_x5F_cream_2_" class="st4">
		<path id="Path_1_" class="st5" d="M68.2,95.1c20.9-2.1,37.3-19.8,37.3-41.3c0-2.5-0.1-7.7-0.1-7.7l-82.9,0.1v7.6
			c0,21.4,16.4,39.1,37.2,41.3l0,19.7c0,0-0.1,0-0.2,0.1c-5.5,1.8-9.5,7-9.5,13.2c11.8,0,12.8,0,27.8,0c0-6-3.9-11.2-9.3-13.1
			c-0.2-0.1-0.4-0.1-0.4-0.1V96.4 M101.3,50.3c0,1.4,0,3.2,0,3.5c0,20.6-16.7,37.3-37.3,37.3S26.7,74.4,26.7,53.8v-3.5L101.3,50.3z"
			/>
		<path id="Path" class="st5" d="M67.9,15.3C85,16.9,98.2,29,98.2,43.7c-24.4,0-41.3,0-68.5,0c0-14.6,13.2-26.7,30.1-28.4l0.4,0
			c-2.6-1.3-4.4-4.1-4.4-7.2C55.9,3.6,59.5,0,64,0c4.5,0,8.1,3.6,8.1,8.1c0,3.2-1.8,5.9-4.4,7.2L67.9,15.3z M45.2,30.7l-8.5,5.2
			l1.4,2.4l8.5-5.2L45.2,30.7z M63.2,30.7l-8.5,5.2l1.4,2.4l8.5-5.2L63.2,30.7z M79.9,22.4l-8.5,5.2l1.4,2.4l8.5-5.2L79.9,22.4z
			 M77.2,33.5l-8.5,5.2l1.4,2.4l8.5-5.2L77.2,33.5z M89.7,28l-8.5,5.2l1.4,2.4l8.5-5.2L89.7,28z M56.3,21l-8.5,5.2l1.4,2.4l8.5-5.2
			L56.3,21z M70.2,18.2l-8.5,5.2l1.4,2.4l8.5-5.2L70.2,18.2z"/>
	</g>
	<path id="ice_x5F_cream_1_" class="st3" d="M69.8,128H58.2V93.7h11.7V128z M97.3,81V35c0-24-17.3-35-33.3-35
		C47.9,0,30.7,10.9,30.7,35v46c0,7,6.5,12.7,14.6,12.7h37.5C90.8,93.7,97.3,88,97.3,81z M92.2,35v46c0,4.6-4.2,8.3-9.4,8.3H45.2
		c-5.2,0-9.4-3.7-9.4-8.3V35C35.8,14,50.4,4.4,64,4.4C77.6,4.4,92.2,14,92.2,35z M45.4,65.4h-5.1V33.8c0-13.8,7.4-23.4,17.9-23.4
		v4.4c-7.4,0-12.8,8-12.8,19V65.4z"/>
	<path id="ice_x5F_cream" class="st3" d="M37.4,57.8h53.2L64,128L37.4,57.8z M91.4,56.3c5.1-4.2,8.1-10.4,8.1-17.1
		c0-9.2-5.7-17.1-13.7-20.4C84.2,8.1,74.9,0,64,0S43.8,8.1,42.2,18.8c-8,3.3-13.7,11.2-13.7,20.4c0,6.6,2.9,12.8,8,17.1l0.7,0.5H38
		c6.1,0,20.6,0,32.9,0l19.9,0L91.4,56.3z M33.2,39.2c0-9.6,7.8-17.4,17.4-17.4c3.7,0,9.9,3.5,12.1,4.9l1.5,1.1l1.4-1.3
		c0.2-0.1,0.3-0.3,0.5-0.4c3.2-2.7,7.2-4.2,11.3-4.2c9.6,0,17.4,7.8,17.4,17.4c0,4.9-2.1,9.6-5.7,12.9l-18.2,0c-11.7,0-25.4,0-32,0
		C35.3,48.8,33.2,44.1,33.2,39.2z M47.3,17.3C49.4,10,56.2,4.7,64,4.7c7.8,0,14.6,5.3,16.7,12.6c-1.1-0.2-2.2-0.2-3.3-0.2
		c-5,0-9.7,1.7-13.6,4.7c-2.6-1.7-8.2-4.7-13.2-4.7C49.5,17.1,48.4,17.2,47.3,17.3z M79.1,88L52.6,98l1.3,3.4l23.5-8.9L79.1,88z
		 M75.3,98.2l-19.7,7.4l1.3,3.5l16.7-6.3L75.3,98.2z M78,24.2v2.4c6.3,0,11.4,5.1,11.4,11.4h2.4C91.8,30.4,85.6,24.2,78,24.2z
		 M83,77.8L49.7,90.2l1.3,3.6l30.2-11.4L83,77.8z"/>
</g>
</svg>
